<svg xmlns="http://www.w3.org/2000/svg" xmlns:xlink="http://www.w3.org/1999/xlink" version="1.1" viewBox="0 0 100 100" preserveAspectRatio="xMidYMin slice" style="width: 100%; padding-bottom: 92%; height: 1px; overflow: visible"><g><path d="M50,5C34.362,5,21.685,17.677,21.685,33.315c0,4.49,1.045,8.735,2.905,12.507l0.279,0.583L49.995,95l24.913-48.184   l0.14-0.286c2.086-3.945,3.267-8.443,3.267-13.216C78.315,17.677,65.638,5,50,5z M50.009,19.973c3.728,0,6.75,3.022,6.75,6.75   s-3.022,6.75-6.75,6.75s-6.75-3.022-6.75-6.75S46.281,19.973,50.009,19.973z M60.134,40.223v6.75h-3.375h-13.5h-3.375v-6.75   c0-1.864,1.511-3.375,3.375-3.375h13.5C58.623,36.848,60.134,38.359,60.134,40.223z"/></g></svg>