<?xml version="1.0" encoding="iso-8859-1"?>
<svg version="1.1" id="Layer_1" xmlns="http://www.w3.org/2000/svg" xmlns:xlink="http://www.w3.org/1999/xlink" x="0px" y="0px"
	 viewBox="0 0 512 512" xml:space="preserve">
	<g>
		<path fill="#009FB8" d="M256,250.849c30.505,0,55.321-24.817,55.321-55.321c0-30.504-24.816-55.321-55.321-55.321s-55.322,24.817-55.322,55.321
			C200.678,226.031,225.495,250.849,256,250.849z"/>
		<path fill="#009FB8" d="M256,256.358c-54.152,0-98.207,44.055-98.207,98.207c0,9.515,7.714,17.229,17.229,17.229h161.956
			c9.515,0,17.229-7.714,17.229-17.229C354.207,300.414,310.151,256.358,256,256.358z"/>
		<path fill="#009FB8" d="M494.771,238.771h-15.455c-8.391-109.793-96.294-197.696-206.088-206.088V17.229C273.229,7.714,265.515,0,256,0
			c-9.515,0-17.229,7.714-17.229,17.229v15.455C128.978,41.075,41.075,128.978,32.684,238.771H17.229
			C7.714,238.771,0,246.485,0,256c0,9.515,7.714,17.229,17.229,17.229h15.455c8.391,109.793,96.294,197.696,206.088,206.088v15.455
			c0,9.515,7.714,17.229,17.229,17.229c9.515,0,17.229-7.714,17.229-17.229v-15.455c109.793-8.391,197.696-96.294,206.088-206.088
			h15.455c9.515,0,17.229-7.714,17.229-17.229C512,246.485,504.286,238.771,494.771,238.771z M273.229,444.723v-14.008
			c0-9.515-7.714-17.229-17.229-17.229c-9.515,0-17.229,7.714-17.229,17.229v14.008c-90.778-8.22-163.274-80.717-171.495-171.495
			h14.008c9.515,0,17.229-7.714,17.229-17.229c0-9.515-7.714-17.229-17.229-17.229H67.277
			c8.22-90.778,80.717-163.274,171.495-171.495v14.008c0,9.515,7.714,17.229,17.229,17.229c9.515,0,17.229-7.714,17.229-17.229
			V67.277c90.778,8.22,163.274,80.717,171.495,171.495h-14.008c-9.515,0-17.229,7.714-17.229,17.229
			c0,9.515,7.714,17.229,17.229,17.229h14.008C436.503,364.006,364.006,436.503,273.229,444.723z"/>
	</g>
</svg>
